<svg width="20" height="20" viewBox="0 0 20 20" fill="none" xmlns="http://www.w3.org/2000/svg">
<path d="M9.99996 1.66663C12.2641 1.66663 12.5466 1.67496 13.435 1.71663C14.3225 1.75829 14.9266 1.89746 15.4583 2.10413C16.0083 2.31579 16.4716 2.60246 16.935 3.06496C17.3587 3.48154 17.6866 3.98545 17.8958 4.54163C18.1016 5.07246 18.2416 5.67746 18.2833 6.56496C18.3225 7.45329 18.3333 7.73579 18.3333 9.99996C18.3333 12.2641 18.325 12.5466 18.2833 13.435C18.2416 14.3225 18.1016 14.9266 17.8958 15.4583C17.6872 16.0148 17.3592 16.5188 16.935 16.935C16.5183 17.3586 16.0144 17.6864 15.4583 17.8958C14.9275 18.1016 14.3225 18.2416 13.435 18.2833C12.5466 18.3225 12.2641 18.3333 9.99996 18.3333C7.73579 18.3333 7.45329 18.325 6.56496 18.2833C5.67746 18.2416 5.07329 18.1016 4.54163 17.8958C3.98523 17.687 3.48123 17.3591 3.06496 16.935C2.64113 16.5184 2.31324 16.0145 2.10413 15.4583C1.89746 14.9275 1.75829 14.3225 1.71663 13.435C1.67746 12.5466 1.66663 12.2641 1.66663 9.99996C1.66663 7.73579 1.67496 7.45329 1.71663 6.56496C1.75829 5.67663 1.89746 5.07329 2.10413 4.54163C2.31266 3.98511 2.64063 3.48106 3.06496 3.06496C3.48135 2.64099 3.98532 2.31307 4.54163 2.10413C5.07329 1.89746 5.67663 1.75829 6.56496 1.71663C7.45329 1.67746 7.73579 1.66663 9.99996 1.66663ZM9.99996 5.83329C8.89489 5.83329 7.83508 6.27228 7.05368 7.05368C6.27228 7.83508 5.83329 8.89489 5.83329 9.99996C5.83329 11.105 6.27228 12.1648 7.05368 12.9462C7.83508 13.7276 8.89489 14.1666 9.99996 14.1666C11.105 14.1666 12.1648 13.7276 12.9462 12.9462C13.7276 12.1648 14.1666 11.105 14.1666 9.99996C14.1666 8.89489 13.7276 7.83508 12.9462 7.05368C12.1648 6.27228 11.105 5.83329 9.99996 5.83329V5.83329ZM15.4166 5.62496C15.4166 5.34869 15.3069 5.08374 15.1115 4.88839C14.9162 4.69304 14.6512 4.58329 14.375 4.58329C14.0987 4.58329 13.8337 4.69304 13.6384 4.88839C13.443 5.08374 13.3333 5.34869 13.3333 5.62496C13.3333 5.90123 13.443 6.16618 13.6384 6.36153C13.8337 6.55688 14.0987 6.66663 14.375 6.66663C14.6512 6.66663 14.9162 6.55688 15.1115 6.36153C15.3069 6.16618 15.4166 5.90123 15.4166 5.62496ZM9.99996 7.49996C10.663 7.49996 11.2989 7.76335 11.7677 8.23219C12.2366 8.70103 12.5 9.33692 12.5 9.99996C12.5 10.663 12.2366 11.2989 11.7677 11.7677C11.2989 12.2366 10.663 12.5 9.99996 12.5C9.33692 12.5 8.70103 12.2366 8.23219 11.7677C7.76335 11.2989 7.49996 10.663 7.49996 9.99996C7.49996 9.33692 7.76335 8.70103 8.23219 8.23219C8.70103 7.76335 9.33692 7.49996 9.99996 7.49996V7.49996Z" fill="#990DE6"/>
</svg>
