<svg width="20" height="20" viewBox="0 0 20 20" fill="none" xmlns="http://www.w3.org/2000/svg">
<path d="M15.2792 15.2825H13.0583V11.8017C13.0583 10.9717 13.0417 9.90333 11.9 9.90333C10.7425 9.90333 10.5658 10.8067 10.5658 11.7408V15.2825H8.34417V8.125H10.4775V9.1H10.5067C10.805 8.53833 11.53 7.94417 12.6133 7.94417C14.8633 7.94417 15.28 9.42583 15.28 11.3533V15.2825H15.2792ZM5.83583 7.14583C5.6663 7.14605 5.49838 7.11281 5.34172 7.04801C5.18506 6.9832 5.04272 6.88812 4.92288 6.7682C4.80304 6.64828 4.70804 6.50588 4.64334 6.34918C4.57864 6.19247 4.5455 6.02454 4.54583 5.855C4.546 5.59986 4.62182 5.3505 4.7637 5.13846C4.90558 4.92641 5.10716 4.76119 5.34294 4.66371C5.57872 4.56623 5.83811 4.54085 6.08832 4.59078C6.33852 4.64072 6.5683 4.76373 6.74859 4.94426C6.92888 5.12478 7.05159 5.35472 7.10121 5.60498C7.15082 5.85525 7.12511 6.11461 7.02732 6.35026C6.92953 6.58592 6.76406 6.78728 6.55183 6.92889C6.33959 7.0705 6.09014 7.146 5.835 7.14583H5.83583ZM6.94917 15.2825H4.72167V8.125H6.95V15.2825H6.94917ZM16.3917 2.5H3.6075C2.99417 2.5 2.5 2.98333 2.5 3.58083V16.4192C2.5 17.0167 2.995 17.5 3.60667 17.5H16.3883C17 17.5 17.5 17.0167 17.5 16.4192V3.58083C17.5 2.98333 17 2.5 16.3883 2.5H16.3908H16.3917Z" fill="#990DE6"/>
</svg>
