<svg width="120" height="28" viewBox="0 0 120 28" fill="none" xmlns="http://www.w3.org/2000/svg">
<path fill-rule="evenodd" clip-rule="evenodd" d="M108.274 4.19976V1.60352H120V4.19976H108.274ZM102.528 7.10144V9.69769H98.2477V7.10144H102.528ZM93.5025 1.60352H103.553V4.19976H96.0914V12.9048H103.553V15.5011H93.5025V1.60352ZM78.5787 6.94872V15.5011H75.9898V1.60352H76.9036L88.1893 12.9216V15.4247H87.1751L78.5787 6.94872ZM85.5838 1.60352H88.1726V8.17048L85.5838 5.57424V1.60352ZM45.0761 15.5011L41.7259 9.69769H38.9848V15.5011H36.3959V7.10144H43.0964C44.2096 7.08312 44.8934 6.57303 44.9239 5.57424C44.8934 4.6625 44.1898 4.23641 43.0964 4.19976H36.3959V1.60352H42.4873C45.7142 1.60352 47.3604 2.9108 47.3604 5.57424C47.3604 7.57793 46.468 8.84398 44.7716 9.39225L48.2741 15.5011H45.0761ZM25.1863 5.25353L21.1675 15.5011H18.1218L23.7563 1.60352H26.4975L32.132 15.5011H29.0863L25.1863 5.25353ZM11.1168 7.25416L6.84518 12.0038L6.5802 11.709L6.59695 11.683L0 4.35248V1.60352H0.913706L6.84518 8.39651L12.7919 1.60352H13.7056V15.5011H11.1168V7.25416ZM2.58883 15.5011H0V8.93409L2.58883 11.8358V15.5011ZM115.431 15.5011H112.843V7.10144H115.431V15.5011Z" fill="black"/>
<path fill-rule="evenodd" clip-rule="evenodd" d="M53.6041 17.1047V10.9027L64.5594 0H70.6599L53.6041 17.1047ZM53.6041 0H59.898L53.6041 6.31193V0ZM64.4833 10.8508L70.6599 16.9794H58.4589L61.3827 13.9602L64.4833 10.8508Z" fill="#990DE6"/>
<path d="M42.7598 21.8598C43.27 22.1454 43.6735 22.5381 43.9672 23.0379C44.2608 23.5377 44.4092 24.088 44.4092 24.6919C44.4092 25.2959 44.2608 25.8432 43.9672 26.3401C43.6735 26.8369 43.27 27.2296 42.7539 27.5152C42.2407 27.8008 41.6711 27.9436 41.0452 27.9436H38.4525V21.4314H41.063C41.683 21.4314 42.2466 21.5742 42.7598 21.8598ZM42.4276 27.0124C42.8369 26.7774 43.1603 26.4561 43.3976 26.0485C43.6349 25.6409 43.7565 25.1888 43.7565 24.6919C43.7565 24.1951 43.6349 23.7429 43.3946 23.3324C43.1543 22.9218 42.8251 22.6005 42.4157 22.3626C42.0034 22.1275 41.5495 22.0085 41.0541 22.0085H39.0933V27.3634H41.0808C41.5703 27.3664 42.0212 27.2474 42.4276 27.0124Z" fill="black"/>
<path d="M48.0015 21.4314H48.6423V27.9436H48.0015V21.4314Z" fill="black"/>
<path d="M57.4319 24.7573H57.9985V27.1433C57.684 27.411 57.3162 27.6193 56.8979 27.771C56.4797 27.9227 56.0555 28 55.6194 28C55.0053 28 54.4417 27.8513 53.9255 27.5538C53.4094 27.2563 52.997 26.8517 52.6945 26.343C52.3919 25.8343 52.2406 25.278 52.2406 24.6741C52.2406 24.0731 52.3919 23.5198 52.6945 23.017C52.997 22.5142 53.4123 22.1156 53.9344 21.8211C54.4565 21.5266 55.0291 21.3778 55.649 21.3778C56.0881 21.3778 56.5153 21.4552 56.9276 21.6099C57.3399 21.7646 57.7018 21.9817 58.0192 22.2614L57.6484 22.7195C57.3815 22.4726 57.0759 22.2792 56.7288 22.1453C56.3818 22.0115 56.0228 21.946 55.652 21.946C55.1507 21.946 54.6879 22.068 54.2667 22.3149C53.8455 22.5589 53.5102 22.8921 53.264 23.3056C53.0148 23.7221 52.8932 24.1772 52.8932 24.6741C52.8932 25.1768 53.0178 25.6379 53.264 26.0574C53.5102 26.4769 53.8484 26.8101 54.2726 27.054C54.6968 27.3009 55.1596 27.4229 55.6609 27.4229C55.9694 27.4229 56.2779 27.3723 56.5864 27.2682C56.892 27.1671 57.1768 27.0213 57.4378 26.8339V24.7573H57.4319Z" fill="black"/>
<path d="M62.0655 21.4314H62.7062V27.9436H62.0655V21.4314Z" fill="black"/>
<path d="M66.0138 21.4225H70.9471V22.0086H68.8023V27.9436H68.1616V22.0086H66.0168V21.4225H66.0138Z" fill="black"/>
<path d="M78.4967 27.9436L77.7254 26.2121H74.1212L73.3588 27.9436H72.6706L75.5955 21.4314H76.263L79.1879 27.9436H78.4967ZM74.3733 25.635H77.4762L75.9159 22.1127L74.3733 25.635Z" fill="black"/>
<path d="M82.445 21.4314H83.0858V27.3664H85.9455V27.9436H82.4421V21.4314H82.445Z" fill="black"/>
</svg>
