<svg width="20" height="20" viewBox="0 0 20 20" fill="none" xmlns="http://www.w3.org/2000/svg">
<path d="M18.4684 4.71327C17.8322 4.99468 17.1575 5.1795 16.4667 5.26161C17.1948 4.82613 17.7398 4.14078 18 3.33327C17.3167 3.73994 16.5675 4.02494 15.7867 4.17911C15.2622 3.61792 14.567 3.24574 13.8092 3.12043C13.0513 2.99511 12.2733 3.12368 11.5961 3.48615C10.9189 3.84862 10.3804 4.42468 10.0643 5.12477C9.74824 5.82486 9.67233 6.60976 9.84838 7.35744C8.46263 7.28799 7.10699 6.92788 5.86945 6.30049C4.63191 5.67311 3.54015 4.79248 2.66504 3.71577C2.35529 4.24781 2.19251 4.85263 2.19338 5.46827C2.19338 6.67661 2.80838 7.74411 3.74338 8.36911C3.19005 8.35169 2.6489 8.20226 2.16504 7.93327V7.97661C2.16521 8.78136 2.44368 9.56129 2.95325 10.1842C3.46282 10.807 4.17211 11.2345 4.96088 11.3941C4.44722 11.5333 3.90863 11.5538 3.38588 11.4541C3.60827 12.1468 4.04172 12.7526 4.62554 13.1867C5.20936 13.6208 5.91432 13.8614 6.64171 13.8749C5.91878 14.4427 5.09102 14.8624 4.20578 15.1101C3.32053 15.3577 2.39515 15.4285 1.48254 15.3183C3.07563 16.3428 4.93012 16.8867 6.82421 16.8849C13.235 16.8849 16.7409 11.5741 16.7409 6.96827C16.7409 6.81827 16.7367 6.66661 16.73 6.51827C17.4124 6.02508 18.0014 5.41412 18.4692 4.71411L18.4684 4.71327Z" fill="#990DE6"/>
</svg>
